<?xml version="1.0" encoding="UTF-8"?>
<!DOCTYPE svg PUBLIC "-//W3C//DTD SVG 1.1//EN" "http://www.w3.org/Graphics/SVG/1.1/DTD/svg11.dtd">
<!-- Creator: CorelDRAW 2020 (64 Bit) -->
<svg xmlns="http://www.w3.org/2000/svg" xml:space="preserve" width="21.1679mm" height="8.4107mm" version="1.1" style="shape-rendering:geometricPrecision; text-rendering:geometricPrecision; image-rendering:optimizeQuality; fill-rule:evenodd; clip-rule:evenodd"
viewBox="0 0 268.51 106.69"
 xmlns:xlink="http://www.w3.org/1999/xlink"
 xmlns:xodm="http://www.corel.com/coreldraw/odm/2003">
 <defs>
  <style type="text/css">
   <![CDATA[
    .fil0 {fill:url(#id0)}
    .fil1 {fill:url(#id1)}
    .fil2 {fill:url(#id2)}
   ]]>
  </style>
  <linearGradient id="id0" gradientUnits="userSpaceOnUse" x1="0.32" y1="53.24" x2="106.38" y2="53.24">
   <stop offset="0" style="stop-opacity:1; stop-color:#976838"/>
   <stop offset="0.509804" style="stop-opacity:1; stop-color:#EBD264"/>
   <stop offset="1" style="stop-opacity:1; stop-color:#976838"/>
  </linearGradient>
  <linearGradient id="id1" gradientUnits="userSpaceOnUse" xlink:href="#id0" x1="118.13" y1="42.83" x2="268.52" y2="42.83">
  </linearGradient>
  <linearGradient id="id2" gradientUnits="userSpaceOnUse" xlink:href="#id0" x1="131.9" y1="89.42" x2="254.73" y2="89.42">
  </linearGradient>
 </defs>
 <g id="Camada_x0020_1">
  <metadata id="CorelCorpID_0Corel-Layer"/>
  <g id="_1456610887632">
   <path class="fil0" d="M83.57 95.96c0.4,-0.14 0.84,0.07 0.98,0.47 0.14,0.4 -0.07,0.84 -0.47,0.98 -4.3,1.54 -8.17,1.93 -11.62,1.19 0.14,0.3 0.26,0.62 0.34,0.94 0.31,1.16 0.25,2.43 -0.25,3.6 -0.16,0.39 -0.61,0.57 -1,0.41 -0.39,-0.16 -0.57,-0.61 -0.41,-1 0.36,-0.85 0.4,-1.76 0.18,-2.61 -0.22,-0.81 -0.69,-1.56 -1.37,-2.1 -0.74,-0.3 -1.45,-0.65 -2.14,-1.07 -4.46,-2.68 -7.96,-7.78 -10.49,-15.3l-0.02 -0.06 -0.01 -0.03c-0.74,-3.73 -0.22,-6.97 1.49,-9.52 1.68,-2.49 4.49,-4.28 8.37,-5.14l0.01 -0c2.16,-0.44 4.47,-0.45 6.78,-0.11 1.05,0.15 2.09,0.38 3.12,0.68 2,-1.13 3.32,-1.9 4.87,-3.53 1.64,-1.72 3.18,-3.17 4.72,-4.24 1.59,-1.11 3.16,-1.82 4.8,-2 0.42,-0.05 0.8,0.26 0.85,0.68 0.05,0.42 -0.26,0.8 -0.68,0.85 -1.37,0.16 -2.71,0.77 -4.09,1.73 -1.43,1 -2.91,2.38 -4.48,4.04 -1.36,1.43 -2.53,2.24 -4.03,3.12 0.64,0.24 1.28,0.52 1.89,0.81l0 -0c2.24,0.99 4.84,1.3 7.16,0.93 2.18,-0.34 4.1,-1.27 5.24,-2.77 1.97,-2.65 3.83,-4.48 5.81,-5.62 2.03,-1.16 4.15,-1.6 6.62,-1.45 0.42,0.02 0.75,0.39 0.72,0.81 -0.03,0.42 -0.39,0.75 -0.81,0.72 -2.17,-0.13 -4.02,0.25 -5.77,1.25 -1.79,1.03 -3.5,2.72 -5.35,5.21l-0 0.01c-1.39,1.84 -3.67,2.96 -6.23,3.36 -2.6,0.41 -5.51,0.06 -8.01,-1.04l-0.02 -0.01c-2.05,-0.98 -4.29,-1.68 -6.54,-2.01 -2.14,-0.32 -4.28,-0.31 -6.25,0.09 -3.47,0.77 -5.96,2.33 -7.42,4.5 -1.48,2.19 -1.92,5.03 -1.26,8.33 2.41,7.13 5.68,11.94 9.81,14.41 4.09,2.45 9.08,2.63 14.98,0.52zm-27.88 -87.04c-1.01,0 -1.83,0.82 -1.83,1.83 0,1.01 0.82,1.83 1.83,1.83 1.01,0 1.83,-0.82 1.83,-1.83 0,-1.01 -0.82,-1.83 -1.83,-1.83zm0.21 0.37c-0.37,0 -0.67,0.3 -0.67,0.67 0,0.37 0.3,0.67 0.67,0.67 0.37,0 0.67,-0.3 0.67,-0.67 0,-0.37 -0.3,-0.67 -0.67,-0.67zm13.99 7.6c-1.01,0 -1.83,0.82 -1.83,1.83 0,1.01 0.82,1.83 1.83,1.83 1.01,0 1.83,-0.82 1.83,-1.83 0,-1.01 -0.82,-1.83 -1.83,-1.83zm0.21 0.37c-0.37,0 -0.67,0.3 -0.67,0.67 0,0.37 0.3,0.67 0.67,0.67 0.37,0 0.67,-0.3 0.67,-0.67 0,-0.37 -0.3,-0.67 -0.67,-0.67zm28.02 35.55c-1.01,0 -1.83,0.82 -1.83,1.83 0,1.01 0.82,1.83 1.83,1.83 1.01,0 1.83,-0.82 1.83,-1.83 0,-1.01 -0.82,-1.83 -1.83,-1.83zm0.21 0.36c-0.37,0 -0.67,0.3 -0.67,0.67 0,0.37 0.3,0.67 0.67,0.67 0.37,0 0.67,-0.3 0.67,-0.67 0,-0.37 -0.3,-0.67 -0.67,-0.67zm-16.44 19.69c-1.01,0 -1.83,0.82 -1.83,1.83 0,1.01 0.82,1.83 1.83,1.83 1.01,0 1.83,-0.82 1.83,-1.83 0,-1.01 -0.82,-1.83 -1.83,-1.83zm0.21 0.37c-0.37,0 -0.67,0.3 -0.67,0.67 0,0.37 0.3,0.67 0.67,0.67 0.37,0 0.67,-0.3 0.67,-0.67 0,-0.37 -0.3,-0.67 -0.67,-0.67zm2.87 -24.07c-1.01,0 -1.83,0.82 -1.83,1.83 0,1.01 0.82,1.83 1.83,1.83 1.01,0 1.83,-0.82 1.83,-1.83 0,-1.01 -0.82,-1.83 -1.83,-1.83zm0.21 0.37c-0.37,0 -0.67,0.3 -0.67,0.67 0,0.37 0.3,0.67 0.67,0.67 0.37,0 0.67,-0.3 0.67,-0.67 0,-0.37 -0.3,-0.67 -0.67,-0.67zm-76.42 18.88c-1.01,0 -1.83,0.82 -1.83,1.83 0,1.01 0.82,1.83 1.83,1.83 1.01,0 1.83,-0.82 1.83,-1.83 0,-1.01 -0.82,-1.83 -1.83,-1.83zm0.21 0.37c-0.37,0 -0.67,0.3 -0.67,0.67 0,0.37 0.3,0.67 0.67,0.67 0.37,0 0.67,-0.3 0.67,-0.67 0,-0.37 -0.3,-0.67 -0.67,-0.67zm17.34 8.72c-1.01,0 -1.83,0.82 -1.83,1.83 0,1.01 0.82,1.83 1.83,1.83 1.01,0 1.83,-0.82 1.83,-1.83 0,-1.01 -0.82,-1.83 -1.83,-1.83zm0.21 0.37c-0.37,0 -0.67,0.3 -0.67,0.67 0,0.37 0.3,0.67 0.67,0.67 0.37,0 0.67,-0.3 0.67,-0.67 0,-0.37 -0.3,-0.67 -0.67,-0.67zm48.61 -35.35c-1.01,0 -1.83,0.82 -1.83,1.83 0,1.01 0.82,1.83 1.83,1.83 1.01,0 1.83,-0.82 1.83,-1.83 0,-1.01 -0.82,-1.83 -1.83,-1.83zm0.21 0.37c-0.37,0 -0.67,0.3 -0.67,0.67 0,0.37 0.3,0.67 0.67,0.67 0.37,0 0.67,-0.3 0.67,-0.67 0,-0.37 -0.3,-0.67 -0.67,-0.67zm-28.46 -9.83c-1.01,0 -1.83,0.82 -1.83,1.83 0,1.01 0.82,1.83 1.83,1.83 1.01,0 1.83,-0.82 1.83,-1.83 0,-1.01 -0.82,-1.83 -1.83,-1.83zm0.21 0.37c-0.37,0 -0.67,0.3 -0.67,0.67 0,0.37 0.3,0.67 0.67,0.67 0.37,0 0.67,-0.3 0.67,-0.67 0,-0.37 -0.3,-0.67 -0.67,-0.67zm-11.45 10.72c-1.01,0 -1.83,0.82 -1.83,1.83 0,1.01 0.82,1.83 1.83,1.83 1.01,0 1.83,-0.82 1.83,-1.83 0,-1.01 -0.82,-1.83 -1.83,-1.83zm0.21 0.37c-0.37,0 -0.67,0.3 -0.67,0.67 0,0.37 0.3,0.67 0.67,0.67 0.37,0 0.67,-0.3 0.67,-0.67 0,-0.37 -0.3,-0.67 -0.67,-0.67zm-7.83 -0.44c-1.01,0 -1.83,0.82 -1.83,1.83 0,1.01 0.82,1.83 1.83,1.83 1.01,0 1.83,-0.82 1.83,-1.83 0,-1.01 -0.82,-1.83 -1.83,-1.83zm0.21 0.37c-0.37,0 -0.67,0.3 -0.67,0.67 0,0.37 0.3,0.67 0.67,0.67 0.37,0 0.67,-0.3 0.67,-0.67 0,-0.37 -0.3,-0.67 -0.67,-0.67zm-6.91 14.72c-1.01,0 -1.83,0.82 -1.83,1.83 0,1.01 0.82,1.83 1.83,1.83 1.01,0 1.83,-0.82 1.83,-1.83 0,-1.01 -0.82,-1.83 -1.83,-1.83zm0.21 0.37c-0.37,0 -0.67,0.3 -0.67,0.67 0,0.37 0.3,0.67 0.67,0.67 0.37,0 0.67,-0.3 0.67,-0.67 0,-0.37 -0.3,-0.67 -0.67,-0.67zm-8.14 -17.75c-1.01,0 -1.83,0.82 -1.83,1.83 0,1.01 0.82,1.83 1.83,1.83 1.01,0 1.83,-0.82 1.83,-1.83 0,-1.01 -0.82,-1.83 -1.83,-1.83zm0.21 0.37c-0.37,0 -0.67,0.3 -0.67,0.67 0,0.37 0.3,0.67 0.67,0.67 0.37,0 0.67,-0.3 0.67,-0.67 0,-0.37 -0.3,-0.67 -0.67,-0.67zm5.02 -28.08c-1.01,0 -1.83,0.82 -1.83,1.83 0,1.01 0.82,1.83 1.83,1.83 1.01,0 1.83,-0.82 1.83,-1.83 0,-1.01 -0.82,-1.83 -1.83,-1.83zm0.21 0.37c-0.37,0 -0.67,0.3 -0.67,0.67 0,0.37 0.3,0.67 0.67,0.67 0.37,0 0.67,-0.3 0.67,-0.67 0,-0.37 -0.3,-0.67 -0.67,-0.67zm21.57 4.48c1.01,0 1.83,0.82 1.83,1.83 0,1.01 -0.82,1.83 -1.83,1.83 -1.01,0 -1.83,-0.82 -1.83,-1.83 0,-1.01 0.82,-1.83 1.83,-1.83zm-0.21 0.37c0.37,0 0.67,0.3 0.67,0.67 0,0.37 -0.3,0.67 -0.67,0.67 -0.37,0 -0.67,-0.3 -0.67,-0.67 0,-0.37 0.3,-0.67 0.67,-0.67zm60.86 43.74c1.12,-0.49 2.32,-0.38 3.61,0.33 -1.4,0.73 -2.6,0.62 -3.61,-0.33zm0.48 0.03c1.03,-0.01 1.55,-0.01 1.55,-0.01 -0.52,-0.17 -1.03,-0.17 -1.55,0.01zm-3.04 1.78c2.25,-0.39 4.38,0.34 6.4,2.21 -2.86,0.7 -4.99,-0.04 -6.4,-2.21zm0.85 0.27c1.87,0.45 2.81,0.67 2.81,0.67 -0.86,-0.54 -1.8,-0.77 -2.81,-0.67zm-2.69 1c2.67,1.89 4.07,4.81 4.21,8.75 -3.6,-2.21 -5,-5.13 -4.21,-8.75zm0.58 1.14c1.44,2.36 2.15,3.55 2.15,3.55 -0.31,-1.42 -1.03,-2.61 -2.15,-3.55zm-10.36 4.94c3.71,2.26 5.84,5.99 6.4,11.2 -4.97,-2.59 -7.1,-6.32 -6.4,-11.2zm0.88 1.45c2.12,3 3.18,4.49 3.18,4.49 -0.55,-1.86 -1.61,-3.35 -3.18,-4.49zm-22.79 -3.65c1.64,1.88 2.16,4.3 1.56,7.25 -2.27,-2.28 -2.79,-4.7 -1.56,-7.25zm0.23 0.95c0.64,2.01 0.96,3.01 0.96,3.01 0.02,-1.11 -0.3,-2.12 -0.96,-3.01zm2.31 -1.32c3.57,0.82 6.27,3.24 8.1,7.26 -4.67,-0.75 -7.36,-3.18 -8.1,-7.26zm1.09 0.93c2.49,1.83 3.74,2.75 3.74,2.75 -0.93,-1.34 -2.18,-2.26 -3.74,-2.75zm-7.63 -8.77c3.34,-2.65 7.49,-3.34 12.47,-2.08 -4.07,3.69 -8.22,4.38 -12.47,2.08zm1.63 -0.31c3.47,-0.93 5.21,-1.4 5.21,-1.4 -1.89,-0.12 -3.63,0.34 -5.21,1.4zm-3.76 8.26c-0.63,-2.26 -0.1,-4.52 1.6,-6.78 1.01,2.85 0.48,5.11 -1.6,6.78zm0.19 -0.9c0.26,-1.97 0.4,-2.95 0.4,-2.95 -0.47,0.93 -0.6,1.92 -0.4,2.95zm15.48 -3.38c0.63,-3.03 2.62,-5.35 5.97,-6.97 -0.55,3.95 -2.54,6.27 -5.97,6.97zm0.77 -0.93c1.5,-2.14 2.25,-3.21 2.25,-3.21 -1.11,0.81 -1.86,1.88 -2.25,3.21zm12.17 3.17c0.74,-3.59 3.1,-6.34 7.08,-8.26 -0.65,4.68 -3.01,7.43 -7.08,8.26zm0.91 -1.11c1.78,-2.54 2.66,-3.8 2.66,-3.8 -1.32,0.96 -2.2,2.23 -2.66,3.8zm10.06 -7.82c1.52,-2.53 4.04,-3.99 7.57,-4.39 -1.74,3.38 -4.26,4.85 -7.57,4.39zm0.98 -0.6c2.02,-1.45 3.03,-2.18 3.03,-2.18 -1.26,0.38 -2.27,1.11 -3.03,2.18zm-8.45 -7.37c2.74,1.08 4.6,3.33 5.58,6.75 -3.62,-1.16 -5.48,-3.4 -5.58,-6.75zm0.75 0.87c1.77,1.76 2.65,2.63 2.65,2.63 -0.58,-1.18 -1.47,-2.05 -2.65,-2.63zm-0.21 -3.05c4.63,-1.75 9.48,-1.04 14.54,2.11 -5.81,2.64 -10.66,1.94 -14.54,-2.11zm1.92 0.24c4.18,0.2 6.27,0.3 6.27,0.3 -2.05,-0.81 -4.14,-0.91 -6.27,-0.3zm1.35 -3.59c2.25,-2.63 5.47,-3.83 9.64,-3.6 -2.68,3.58 -5.89,4.78 -9.64,3.6zm1.26 -0.5c2.63,-1.29 3.94,-1.93 3.94,-1.93 -1.53,0.2 -2.84,0.84 -3.94,1.93zm-12.41 -3.16c2.12,-1.29 4.58,-1.39 7.37,-0.3 -2.62,1.84 -5.08,1.94 -7.37,0.3zm0.97 -0.06c2.08,-0.29 3.12,-0.44 3.12,-0.44 -1.09,-0.21 -2.13,-0.06 -3.12,0.44zm-11.7 12.79c1.84,-3.8 5.25,-6.22 10.24,-7.24 -2.04,5.05 -5.45,7.47 -10.24,7.24zm1.33 -0.98c2.7,-2.33 4.05,-3.5 4.05,-3.5 -1.74,0.71 -3.09,1.87 -4.05,3.5zm15.45 -29.15c2.71,-0.92 5.49,-0.43 8.36,1.48 -3.4,1.42 -6.19,0.93 -8.36,-1.48zm1.1 0.17c2.41,0.19 3.61,0.28 3.61,0.28 -1.17,-0.5 -2.37,-0.6 -3.61,-0.28zm-2.35 -2.35c-0.5,-2.31 0.18,-4.55 2.03,-6.72 0.84,2.93 0.16,5.17 -2.03,6.72zm0.25 -0.89c0.39,-1.96 0.58,-2.94 0.58,-2.94 -0.53,0.91 -0.72,1.89 -0.58,2.94zm-10.19 10.93c1.5,-2.58 4.04,-4.09 7.6,-4.53 -1.71,3.44 -4.25,4.95 -7.6,4.53zm0.99 -0.62c2.03,-1.49 3.04,-2.24 3.04,-2.24 -1.26,0.4 -2.28,1.15 -3.04,2.24zm15.9 3.45c-0.88,-2.33 -0.53,-4.76 1.05,-7.3 1.33,2.92 0.98,5.35 -1.05,7.3zm0.12 -0.96c0.1,-2.1 0.15,-3.15 0.15,-3.15 -0.4,1.03 -0.45,2.08 -0.15,3.15zm1.63 4.43c-0.42,-3.16 0.73,-6.1 3.45,-8.82 0.81,4.03 -0.34,6.97 -3.45,8.82zm0.43 -1.17c0.73,-2.59 1.1,-3.89 1.1,-3.89 -0.81,1.17 -1.17,2.46 -1.1,3.89zm-5.21 3.6c-1.56,-3.1 -1.43,-6.52 0.4,-10.28 2.27,3.85 2.14,7.27 -0.4,10.28zm0.02 -1.35c-0.17,-2.92 -0.26,-4.38 -0.26,-4.38 -0.41,1.49 -0.32,2.95 0.26,4.38zm-11.34 1.39c0.38,-5.05 3.12,-9.24 8.22,-12.57 -0.05,6.53 -2.79,10.72 -8.22,12.57zm1.04 -1.68c1.98,-3.79 2.97,-5.68 2.97,-5.68 -1.63,1.55 -2.62,3.45 -2.97,5.68zm-5.49 -29.42c0.11,-1.26 0.81,-2.29 2.09,-3.11 -0.03,1.63 -0.73,2.66 -2.09,3.11zm0.27 -0.41c0.51,-0.94 0.76,-1.41 0.76,-1.41 -0.41,0.38 -0.67,0.85 -0.76,1.41zm-14.13 -0.88c-1.83,-1.49 -2.71,-3.66 -2.63,-6.51 2.49,1.76 3.37,3.93 2.63,6.51zm-0.37 -0.85c-0.92,-1.77 -1.39,-2.66 -1.39,-2.66 0.16,1.04 0.62,1.93 1.39,2.66zm4.78 1.84c-0.19,-2.36 0.78,-4.49 2.9,-6.4 0.44,3.02 -0.52,5.15 -2.9,6.4zm0.36 -0.85c0.64,-1.89 0.97,-2.84 0.97,-2.84 -0.64,0.83 -0.97,1.78 -0.97,2.84zm1.01 5.27c0.58,-3.82 2.92,-6.85 7.01,-9.09 -0.42,4.97 -2.76,8 -7.01,9.09zm0.89 -1.22c1.73,-2.77 2.6,-4.15 2.6,-4.15 -1.34,1.09 -2.2,2.47 -2.6,4.15zm10.55 2.99c-0.5,-2.31 0.18,-4.55 2.03,-6.72 0.84,2.93 0.16,5.17 -2.03,6.72zm0.25 -0.89c0.39,-1.96 0.58,-2.94 0.58,-2.94 -0.53,0.91 -0.72,1.89 -0.58,2.94zm1.82 8.59c-0.81,-3.78 0.29,-7.45 3.32,-10.99 1.37,4.8 0.27,8.46 -3.32,10.99zm0.4 -1.46c0.64,-3.21 0.95,-4.81 0.95,-4.81 -0.86,1.49 -1.18,3.1 -0.95,4.81zm-8.87 3.8c-1.01,-4.72 0.36,-9.28 4.13,-13.71 1.71,5.98 0.33,10.55 -4.13,13.71zm0.5 -1.82c0.79,-4 1.19,-5.99 1.19,-5.99 -1.07,1.86 -1.47,3.86 -1.19,5.99zm-12.2 -2.53c-3.19,-3.62 -4.21,-8.28 -3.08,-13.98 4.41,4.39 5.44,9.05 3.08,13.98zm-0.45 -1.83c-1.26,-3.88 -1.89,-5.81 -1.89,-5.81 -0.03,2.15 0.6,4.08 1.89,5.81zm6.69 11.88c-1.79,-2.52 -2.14,-5.57 -1.04,-9.14 2.53,3.09 2.87,6.14 1.04,9.14zm-0.16 -1.2c-0.55,-2.56 -0.82,-3.84 -0.82,-3.84 -0.16,1.37 0.11,2.65 0.82,3.84zm2.35 9.95c-0.48,-3.9 0.96,-7.51 4.34,-10.84 0.96,4.98 -0.49,8.59 -4.34,10.84zm0.54 -1.44c0.93,-3.19 1.4,-4.78 1.4,-4.78 -1.01,1.43 -1.47,3.03 -1.4,4.78zm-11.23 6.29c1.52,-2.06 3.83,-3.11 6.91,-3.15 -1.79,2.78 -4.09,3.83 -6.91,3.15zm0.9 -0.44c1.87,-1.09 2.81,-1.63 2.81,-1.63 -1.12,0.22 -2.05,0.76 -2.81,1.63zm1.91 12c-0.92,-4.12 0.26,-8.12 3.53,-12.01 1.53,5.22 0.36,9.22 -3.53,12.01zm0.43 -1.59c0.67,-3.5 1,-5.25 1,-5.25 -0.93,1.63 -1.26,3.38 -1,5.25zm-8.3 7.83c-1.07,-4.82 0.3,-9.5 4.13,-14.05 1.79,6.11 0.41,10.79 -4.13,14.05zm0.5 -1.86c0.78,-4.09 1.17,-6.14 1.17,-6.14 -1.09,1.91 -1.48,3.96 -1.17,6.14zm-8.85 -1.72c-0.84,-2.15 -0.55,-4.41 0.89,-6.79 1.27,2.69 0.97,4.95 -0.89,6.79zm0.1 -0.9c0.06,-1.95 0.1,-2.92 0.1,-2.92 -0.36,0.96 -0.39,1.93 -0.1,2.92zm-2.99 -1.03c-3.03,-3.21 -4.12,-7.45 -3.26,-12.7 4.18,3.88 5.26,8.11 3.26,12.7zm-0.47 -1.66c-1.27,-3.51 -1.91,-5.26 -1.91,-5.26 0.04,1.97 0.68,3.72 1.91,5.26zm-7.06 -13.35c3.2,0.6 6.27,-0.42 9.18,-3.05 -4.07,-1.04 -7.13,-0.03 -9.18,3.05zm1.22 -0.37c2.69,-0.61 4.03,-0.91 4.03,-0.91 -1.24,0.76 -2.58,1.06 -4.03,0.91zm21.06 -0.76c1.61,-1.98 2.05,-4.46 1.34,-7.44 -2.24,2.41 -2.68,4.89 -1.34,7.44zm0.2 -0.98c0.58,-2.07 0.88,-3.11 0.88,-3.11 0.06,1.13 -0.23,2.17 -0.88,3.11zm-5.82 4.63c0.89,-2.39 0.52,-4.88 -1.11,-7.48 -1.35,2.99 -0.98,5.49 1.11,7.48zm-0.12 -0.99c-0.11,-2.15 -0.16,-3.22 -0.16,-3.22 0.42,1.06 0.47,2.13 0.16,3.22zm-1.58 6.07c0.6,-4.29 -0.93,-8.29 -4.59,-12.01 -1.14,5.47 0.39,9.47 4.59,12.01zm-0.57 -1.59c-0.97,-3.53 -1.45,-5.29 -1.45,-5.29 1.08,1.6 1.57,3.36 1.45,5.29zm-8.77 -18.24c1.45,-1.93 1.78,-4.3 0.99,-7.1 -2.03,2.36 -2.36,4.73 -0.99,7.1zm0.15 -0.93c0.47,-1.98 0.71,-2.98 0.71,-2.98 0.1,1.07 -0.14,2.06 -0.71,2.98zm3.7 3.59c2.22,-0.96 3.68,-2.85 4.38,-5.67 -2.93,1.05 -4.39,2.94 -4.38,5.67zm0.59 -0.73c1.4,-1.48 2.1,-2.23 2.1,-2.23 -0.45,0.98 -1.14,1.72 -2.1,2.23zm6.53 -1.96c0.48,-1.87 0,-3.72 -1.43,-5.56 -0.78,2.37 -0.3,4.22 1.43,5.56zm-0.17 -0.74c-0.25,-1.61 -0.38,-2.42 -0.38,-2.42 0.4,0.76 0.53,1.57 0.38,2.42zm2.29 5.14c2.18,-2.24 2.99,-5.23 2.43,-8.95 -2.99,2.7 -3.8,5.68 -2.43,8.95zm0.35 -1.17c0.94,-2.47 1.41,-3.7 1.41,-3.7 -0.05,1.39 -0.52,2.62 -1.41,3.7zm0.31 -8.53c-0.9,-2.99 -3.11,-5.16 -6.63,-6.49 0.9,3.93 3.11,6.09 6.63,6.49zm-0.85 -0.87c-1.7,-2.02 -2.55,-3.03 -2.55,-3.03 1.19,0.72 2.04,1.73 2.55,3.03zm-1 -14.89c-0.68,-2.58 -0.04,-5.13 1.93,-7.67 1.1,3.26 0.46,5.82 -1.93,7.67zm0.23 -1.02c0.33,-2.23 0.5,-3.34 0.5,-3.34 -0.55,1.05 -0.71,2.17 -0.5,3.34zm-3.66 0.35c-0.21,-2.66 -1.66,-4.86 -4.35,-6.61 0.04,3.44 1.49,5.64 4.35,6.61zm-0.55 -0.88c-1.05,-1.99 -1.57,-2.99 -1.57,-2.99 0.86,0.82 1.39,1.81 1.57,2.99zm-14.42 0.33c-0.33,-1.41 -1.28,-2.48 -2.88,-3.2 0.3,1.84 1.26,2.91 2.88,3.2zm-0.37 -0.43c-0.73,-0.98 -1.09,-1.48 -1.09,-1.48 0.53,0.37 0.89,0.86 1.09,1.48zm5.07 3.11c0.33,-2.5 -0.59,-4.81 -2.74,-6.95 -0.63,3.18 0.28,5.5 2.74,6.95zm-0.34 -0.92c-0.58,-2.04 -0.87,-3.07 -0.87,-3.07 0.64,0.92 0.93,1.94 0.87,3.07zm4.23 3.91c1.87,-3.4 1.87,-7.23 -0.01,-11.51 -2.7,4.21 -2.7,8.05 0.01,11.51zm0.03 -1.51c0.32,-3.26 0.47,-4.89 0.47,-4.89 0.4,1.68 0.24,3.31 -0.47,4.89zm1.96 3.56c2.17,-0.83 3.65,-2.59 4.44,-5.27 -2.86,0.88 -4.34,2.64 -4.44,5.27zm0.6 -0.68c1.4,-1.37 2.1,-2.05 2.1,-2.05 -0.47,0.92 -1.17,1.61 -2.1,2.05zm-10.72 -2.36c-2.95,-2.53 -6.71,-3.31 -11.29,-2.34 3.58,3.5 7.34,4.28 11.29,2.34zm-1.48 -0.34c-3.13,-0.97 -4.7,-1.46 -4.7,-1.46 1.73,-0.05 3.3,0.44 4.7,1.46zm7.1 4.76c-2,-1.19 -4.29,-1.26 -6.89,-0.21 2.47,1.69 4.76,1.77 6.89,0.21zm-0.91 -0.05c-1.94,-0.25 -2.92,-0.38 -2.92,-0.38 1.01,-0.21 1.99,-0.08 2.92,0.38zm-2.65 17.89c-3.03,-3.77 -3.84,-8.49 -2.45,-14.15 4.22,4.59 5.04,9.31 2.45,14.15zm-0.37 -1.85c-1.08,-3.94 -1.62,-5.91 -1.62,-5.91 -0.13,2.15 0.41,4.12 1.62,5.91zm-7.24 -3.07c-1.13,-3.74 -0.31,-7.52 2.45,-11.34 1.77,4.72 0.95,8.5 -2.45,11.34zm0.29 -1.5c0.38,-3.28 0.57,-4.92 0.57,-4.92 -0.75,1.57 -0.94,3.21 -0.57,4.92zm-7.68 -3.79c2.31,0.2 4.41,-0.73 6.3,-2.79 -2.96,-0.46 -5.06,0.47 -6.3,2.79zm0.84 -0.35c1.86,-0.62 2.79,-0.92 2.79,-0.92 -0.82,0.62 -1.75,0.93 -2.79,0.92zm0.51 -2.44c-0.85,-2.84 -0.23,-5.71 1.86,-8.61 1.34,3.58 0.72,6.45 -1.86,8.61zm0.22 -1.14c0.29,-2.49 0.43,-3.73 0.43,-3.73 -0.57,1.19 -0.71,2.44 -0.43,3.73zm-4.92 4.99c-2.73,0.84 -5.5,0.26 -8.3,-1.74 3.44,-1.31 6.21,-0.73 8.3,1.74zm-1.1 -0.2c-2.4,-0.26 -3.6,-0.4 -3.6,-0.4 1.15,0.54 2.35,0.67 3.6,0.4zm0.13 -1.96c-1.85,-1.4 -2.78,-3.5 -2.79,-6.3 2.5,1.65 3.43,3.75 2.79,6.3zm-0.39 -0.82c-0.96,-1.71 -1.45,-2.56 -1.45,-2.56 0.19,1.01 0.67,1.87 1.45,2.56zm-7.15 7.75c-1.19,-1.64 -1.44,-3.63 -0.74,-5.97 1.67,2.01 1.92,4 0.74,5.97zm-0.12 -0.78c-0.37,-1.67 -0.56,-2.51 -0.56,-2.51 -0.1,0.9 0.09,1.73 0.56,2.51zm1.23 3.94c1.23,-2.71 3.59,-4.47 7.08,-5.28 -1.35,3.59 -3.71,5.36 -7.08,5.28zm0.92 -0.72c1.86,-1.69 2.79,-2.54 2.79,-2.54 -1.22,0.53 -2.15,1.38 -2.79,2.54zm19.43 7.83c-1.19,1.35 -2.87,1.95 -5.04,1.79 1.42,-1.84 3.1,-2.44 5.04,-1.79zm-0.66 0.25c-1.38,0.65 -2.07,0.97 -2.07,0.97 0.8,-0.09 1.49,-0.41 2.07,-0.97zm0.17 -1.84c-5,-0 -9.33,-2.4 -12.99,-7.19 6.43,-0.42 10.76,1.97 12.99,7.19zm-1.73 -0.91c-3.88,-1.68 -5.82,-2.52 -5.82,-2.52 1.65,1.5 3.59,2.33 5.82,2.52zm-10.43 11.3c-2.7,-4.21 -3.03,-9.15 -0.98,-14.81 3.84,5.18 4.16,10.12 0.98,14.81zm-0.17 -1.95c-0.69,-4.17 -1.03,-6.25 -1.03,-6.25 -0.37,2.2 -0.02,4.28 1.03,6.25zm2.74 1.17c-0.41,-2.95 0.64,-5.7 3.16,-8.25 0.79,3.76 -0.27,6.51 -3.16,8.25zm0.39 -1.09c0.67,-2.43 1,-3.64 1,-3.64 -0.74,1.1 -1.08,2.31 -1,3.64zm-11.05 -6.91c0.57,-2.92 2.46,-5.18 5.68,-6.77 -0.48,3.81 -2.38,6.07 -5.68,6.77zm0.73 -0.91c1.42,-2.08 2.13,-3.11 2.13,-3.11 -1.06,0.79 -1.77,1.83 -2.13,3.11zm-3.61 -0.59c-2.02,-1.19 -3.21,-3.18 -3.55,-5.99 2.7,1.35 3.89,3.35 3.55,5.99zm-0.48 -0.78c-1.17,-1.6 -1.76,-2.4 -1.76,-2.4 0.31,1 0.9,1.79 1.76,2.4zm-0.05 2.86c-1.72,1.6 -3.97,2.16 -6.75,1.68 2.07,-2.2 4.32,-2.76 6.75,-1.68zm-0.88 0.24c-1.87,0.66 -2.8,0.99 -2.8,0.99 1.04,-0.01 1.98,-0.35 2.8,-0.99zm10.11 15.32c-4,0.48 -7.69,-1.01 -11.08,-4.48 5.1,-0.97 8.8,0.53 11.08,4.48zm-1.47 -0.56c-3.26,-0.96 -4.89,-1.44 -4.89,-1.44 1.47,1.04 3.1,1.52 4.89,1.44zm-6.76 -9.14c-1.74,2.08 -4.24,3.05 -7.51,2.91 2.06,-2.83 4.56,-3.8 7.51,-2.91zm-0.98 0.41c-2.05,1.03 -3.07,1.55 -3.07,1.55 1.2,-0.17 2.22,-0.68 3.07,-1.55zm-0.53 9.49c-2.67,-0.47 -4.76,-2.15 -6.27,-5.05 3.48,0.37 5.57,2.06 6.27,5.05zm-0.84 -0.65c-1.92,-1.26 -2.87,-1.89 -2.87,-1.89 0.74,0.95 1.7,1.58 2.87,1.89zm28.55 1.57c-3.43,2.11 -7.41,2.3 -11.94,0.56 4.23,-3.01 8.21,-3.19 11.94,-0.56zm-1.57 0.11c-3.37,0.49 -5.05,0.73 -5.05,0.73 1.76,0.33 3.45,0.08 5.05,-0.73zm6.11 6.87c-1.95,-1.14 -3.1,-3.05 -3.44,-5.75 2.61,1.29 3.75,3.21 3.44,5.75zm-0.47 -0.74c-1.13,-1.53 -1.7,-2.3 -1.7,-2.3 0.3,0.96 0.87,1.72 1.7,2.3zm-5.69 2.21c-2.71,-0.08 -5.02,-1.44 -6.93,-4.1 3.5,-0.13 5.81,1.24 6.93,4.1zm-0.92 -0.52c-2.08,-0.97 -3.11,-1.45 -3.11,-1.45 0.87,0.84 1.91,1.32 3.11,1.45zm-18.86 -3.34c-2.52,3.1 -6.19,4.57 -10.99,4.43 2.98,-4.2 6.64,-5.68 10.99,-4.43zm-1.43 0.62c-2.99,1.56 -4.49,2.34 -4.49,2.34 1.76,-0.27 3.25,-1.05 4.49,-2.34zm-3.88 -1.88c-2.14,1.67 -4.79,2.08 -7.96,1.25 2.62,-2.32 5.27,-2.74 7.96,-1.25zm-1.04 0.19c-2.22,0.57 -3.33,0.86 -3.33,0.86 1.21,0.09 2.32,-0.2 3.33,-0.86zm17.01 11.98c-4.67,-0.21 -8.6,-2.62 -11.82,-7.24 6.02,-0.13 9.96,2.28 11.82,7.24zm-1.58 -0.92c-3.55,-1.73 -5.32,-2.59 -5.32,-2.59 1.48,1.46 3.25,2.33 5.32,2.59zm-2.49 2.45c-2.58,0.83 -5.22,0.31 -7.9,-1.55 3.25,-1.29 5.89,-0.77 7.9,1.55zm-1.04 -0.18c-2.28,-0.22 -3.42,-0.33 -3.42,-0.33 1.1,0.5 2.24,0.61 3.42,0.33zm-2.25 5.67c-0.95,2.57 -3.01,4.33 -6.16,5.3 1.01,-3.38 3.06,-5.15 6.16,-5.3zm-0.8 0.72c-1.6,1.67 -2.4,2.51 -2.4,2.51 1.08,-0.56 1.88,-1.4 2.4,-2.51zm5.07 -1.47c0.55,3.56 -0.67,6.9 -3.67,10.04 -1.02,-4.53 0.21,-7.88 3.67,-10.04zm-0.45 1.33c-0.76,2.94 -1.14,4.42 -1.14,4.42 0.88,-1.34 1.26,-2.81 1.14,-4.42zm20.48 -12.38c-1.85,4.64 -5.68,7.77 -11.47,9.39 1.99,-6.13 5.81,-9.26 11.47,-9.39zm-1.48 1.27c-2.99,2.98 -4.48,4.47 -4.48,4.47 2,-0.98 3.49,-2.47 4.48,-4.47zm-10.14 0.17c-0.74,-0.15 -1.46,-0.38 -2.15,-0.69 -1.17,-0.52 -2.27,-1.26 -3.28,-2.24 -0.79,-0.76 -1.66,-1.29 -2.6,-1.6 -0.94,-0.3 -1.97,-0.38 -3.08,-0.24 -0.42,0.06 -0.81,-0.24 -0.86,-0.66 -0.06,-0.42 0.24,-0.8 0.66,-0.86 1.34,-0.18 2.59,-0.08 3.75,0.3 1.16,0.38 2.23,1.03 3.2,1.95l0 0c0.87,0.84 1.82,1.48 2.83,1.93 0.95,0.42 1.95,0.67 3,0.76 2.42,-1.89 4.98,-2.8 7.4,-2.96 1.7,-0.11 3.33,0.16 4.79,0.73 1.46,0.57 2.76,1.45 3.78,2.55 1.39,1.5 2.28,3.41 2.41,5.54l0 0.01c0.24,4.25 -0.13,7.99 -1,11.21 -1.18,4.39 -3.27,7.8 -6.01,10.17 -0.83,0.72 -1.71,1.34 -2.64,1.86 -1.05,1.23 -1.66,2.32 -1.81,3.27 -0.14,0.88 0.12,1.66 0.77,2.35 0.29,0.31 0.28,0.79 -0.03,1.09 -0.31,0.29 -0.79,0.28 -1.09,-0.03 -1.01,-1.06 -1.4,-2.28 -1.18,-3.65 0.1,-0.59 0.31,-1.19 0.63,-1.83 -1.43,0.49 -2.95,0.78 -4.53,0.86 -2.11,0.12 -4.33,-0.12 -6.61,-0.73 -0.41,-0.11 -0.65,-0.53 -0.54,-0.94 0.11,-0.41 0.53,-0.65 0.94,-0.54 2.12,0.57 4.18,0.8 6.13,0.69 2.31,-0.13 4.48,-0.73 6.41,-1.78 0.02,-0.02 0.05,-0.03 0.07,-0.04 0.87,-0.48 1.7,-1.06 2.47,-1.73 2.5,-2.17 4.43,-5.33 5.53,-9.41 0.82,-3.06 1.17,-6.65 0.95,-10.72 -0.11,-1.76 -0.85,-3.34 -2.01,-4.59 -0.86,-0.93 -1.96,-1.67 -3.21,-2.16 -1.26,-0.49 -2.66,-0.72 -4.14,-0.63 -2.45,0.16 -5.09,1.21 -7.54,3.48 -4.88,5.28 -9.86,8.26 -14.24,9.07 -1.81,0.33 -3.52,0.3 -5.07,-0.1 -1.58,-0.4 -3,-1.17 -4.22,-2.29 -1.95,-1.8 -3.36,-4.51 -4.02,-8.09 -0.08,-0.42 0.2,-0.82 0.62,-0.89 0.42,-0.08 0.82,0.2 0.89,0.62 0.6,3.24 1.84,5.66 3.55,7.24 1.02,0.95 2.22,1.59 3.55,1.93 1.35,0.34 2.84,0.37 4.42,0.08 3.97,-0.73 8.54,-3.46 13.09,-8.28zm31.37 -42.65c0.26,-1.19 0.58,-2.27 0.96,-3.23 0.57,-1.44 1.27,-2.63 2.11,-3.57 0.89,-1.19 1.34,-2.56 1.46,-4.14 0.12,-1.67 -0.13,-3.59 -0.63,-5.8l0 0c-0.63,-2.45 -0.73,-4.45 -0.29,-5.99 0.47,-1.67 1.53,-2.79 3.17,-3.38 0.4,-0.14 0.84,0.07 0.98,0.47 0.14,0.4 -0.07,0.84 -0.47,0.98 -1.14,0.4 -1.87,1.19 -2.2,2.34 -0.36,1.28 -0.26,3.02 0.3,5.21l0.01 0.02c0.54,2.36 0.8,4.42 0.67,6.25 -0.14,1.9 -0.7,3.54 -1.81,5l-0.04 0.05c-0.72,0.8 -1.33,1.83 -1.83,3.11 -0.49,1.24 -0.88,2.69 -1.16,4.36 1.86,2.91 1.98,5.85 0.87,8.84 -1.18,3.18 -3.77,6.37 -7.12,9.63 -0.01,0.01 -0.02,0.03 -0.04,0.04 -2.68,2.86 -4.01,6.19 -4.1,9.93 -0.08,3.25 0.77,6.84 2.47,10.73 0.94,-3.05 2.59,-5.77 4.76,-7.98 2.42,-2.46 5.5,-4.29 8.96,-5.21 0.78,-0.52 1.43,-1.18 1.93,-1.94 0.52,-0.79 0.88,-1.69 1.04,-2.65 0.16,-0.96 0.11,-1.93 -0.13,-2.85 -0.24,-0.92 -0.67,-1.78 -1.27,-2.55l-0.02 -0.03 -0.03 -0.04c-1.21,-1.92 -1.88,-3.96 -2.02,-6.14 -0.13,-2.16 0.26,-4.43 1.18,-6.83l0.02 -0.05 0.02 -0.03c0.85,-1.59 1.35,-3.1 1.5,-4.52 0.15,-1.39 -0.03,-2.71 -0.53,-3.95 -0.16,-0.39 0.03,-0.84 0.42,-1 0.39,-0.16 0.84,0.03 1,0.42 0.61,1.48 0.82,3.05 0.64,4.7 -0.18,1.61 -0.73,3.29 -1.65,5.04 -0.83,2.16 -1.18,4.21 -1.06,6.13 0.12,1.9 0.71,3.69 1.76,5.38 0.72,0.92 1.24,1.98 1.53,3.09 0.29,1.13 0.35,2.31 0.16,3.48 -0.19,1.17 -0.63,2.27 -1.27,3.24 -0.28,0.42 -0.59,0.81 -0.94,1.18 5.73,0.39 10.11,0.24 13.16,-0.35 1.68,-0.32 2.93,-0.78 3.76,-1.34 0.72,-0.48 1.1,-1.05 1.15,-1.67 0.02,-0.19 0,-0.4 -0.04,-0.61l-0.01 -0.07 0 -0.05c-0,-0.02 -0,-0.04 0,-0.06 0.01,-1.25 -0.31,-2.17 -1.02,-2.98 -0.77,-0.89 -2.01,-1.7 -3.74,-2.66l-0.02 -0.01c-1.51,-0.89 -2.79,-1.83 -3.86,-2.79 -2.26,-2.05 -3.55,-4.27 -3.94,-6.57 -0.39,-2.31 0.14,-4.68 1.52,-7.01 0.58,-0.98 1.32,-1.96 2.19,-2.93l0.03 -0.03c1.85,-1.82 4.68,-2.55 7.38,-3.24 3.27,-0.84 6.3,-1.62 6.27,-4.25 -0.01,-0.42 0.33,-0.77 0.76,-0.78 0.42,-0 0.77,0.33 0.78,0.76 0.05,3.83 -3.54,4.75 -7.42,5.75 -2.48,0.64 -5.1,1.31 -6.66,2.83 -0.81,0.89 -1.47,1.78 -2,2.67 -1.19,2.02 -1.65,4.03 -1.32,5.98 0.33,1.96 1.46,3.87 3.46,5.69 0.99,0.9 2.19,1.77 3.61,2.61 1.87,1.04 3.23,1.94 4.14,2.99 0.17,0.2 0.33,0.4 0.47,0.61 0.38,-1.36 0.91,-2.54 1.61,-3.53 1.25,-1.78 3.01,-2.93 5.32,-3.38 0.98,-0.23 1.86,-0.47 2.64,-0.73 1.71,-0.58 2.93,-1.23 3.66,-1.92 0.6,-0.57 0.83,-1.16 0.69,-1.75 -0.01,-0.06 -0.03,-0.12 -0.05,-0.17 -0.13,-0.4 0.08,-0.84 0.48,-0.97 0.4,-0.13 0.84,0.08 0.97,0.48 0.04,0.11 0.07,0.22 0.09,0.32 0.27,1.15 -0.11,2.23 -1.13,3.21 -0.89,0.85 -2.3,1.62 -4.24,2.27 -0.84,0.28 -1.77,0.54 -2.8,0.78l-0.03 0.01c-1.9,0.37 -3.34,1.31 -4.36,2.76 -1.04,1.48 -1.67,3.51 -1.94,6.02 0.05,0.31 0.07,0.62 0.04,0.91 -0.09,1.11 -0.7,2.06 -1.82,2.82 -1,0.68 -2.45,1.21 -4.33,1.58 -3.49,0.68 -8.6,0.8 -15.34,0.24 -3.19,0.84 -6.02,2.53 -8.25,4.8 -2.26,2.29 -3.9,5.19 -4.68,8.43 -0.05,0.3 -0.09,0.61 -0.13,0.91 -0,0.04 -0.01,0.07 -0.01,0.11l0 0c-0.65,5.13 -0.26,10.43 1.15,15.91 0.85,3.29 2.08,6.64 3.67,10.06l0 0.01 0.01 0.02c1.25,2.68 2.73,5.39 4.45,8.15 0.22,0.36 0.11,0.83 -0.25,1.06 -0.36,0.22 -0.83,0.11 -1.06,-0.25 -1,-1.62 -1.93,-3.22 -2.78,-4.82 -0.01,0.24 -0.03,0.49 -0.05,0.73 -0.13,1.54 -0.48,3.04 -1.06,4.5 -0.15,0.39 -0.6,0.59 -1,0.44 -0.39,-0.15 -0.59,-0.6 -0.44,-0.99 0.52,-1.32 0.83,-2.68 0.95,-4.07 0.12,-1.37 0.04,-2.77 -0.22,-4.2 -1.62,-3.47 -2.86,-6.89 -3.73,-10.24 -1.45,-5.6 -1.85,-11.04 -1.21,-16.31 -2.38,-4.83 -3.58,-9.27 -3.49,-13.3 0.1,-4.07 1.51,-7.68 4.37,-10.8 0.07,-0.43 0.14,-0.86 0.21,-1.27 0.52,-3.04 0.84,-4.91 -1.84,-7.08 -1.51,-1.02 -2.51,-2.22 -2.99,-3.62 -0.49,-1.41 -0.44,-2.98 0.15,-4.71 0.14,-0.4 0.57,-0.62 0.97,-0.48 0.4,0.14 0.62,0.57 0.48,0.97 -0.47,1.4 -0.52,2.64 -0.15,3.71 0.37,1.08 1.18,2.04 2.43,2.87l0.05 0.04c3.11,2.51 3.06,4.57 2.56,7.65 2.39,-2.52 4.2,-4.99 5.1,-7.39 1.05,-2.81 0.81,-5.58 -1.32,-8.31l-0 -0c-3.41,-4.46 -5.91,-9.04 -7.49,-13.73 -1.58,-4.7 -2.24,-9.5 -1.98,-14.42 0.02,-0.42 0.38,-0.75 0.81,-0.73 0.42,0.02 0.75,0.38 0.73,0.81 -0.25,4.72 0.38,9.34 1.9,13.85 1.44,4.26 3.67,8.44 6.69,12.53zm-27.77 14.09c0.05,-2.53 -0.46,-4.62 -1.53,-6.29 -1.08,-1.7 -2.77,-2.98 -5.04,-3.84 -3.13,-1.17 -5.17,-2.78 -6.16,-5 -0.99,-2.2 -0.91,-4.92 0.2,-8.35 0.13,-0.4 0.56,-0.63 0.97,-0.5 0.4,0.13 0.63,0.56 0.5,0.97 -0.98,3.05 -1.08,5.42 -0.26,7.25 0.82,1.82 2.57,3.16 5.3,4.19l0 0c2.59,0.98 4.52,2.46 5.79,4.45 0.91,1.42 1.47,3.1 1.68,5.01 0.19,-0.23 0.38,-0.45 0.59,-0.67l0.26 -0.27c5.4,-5.24 8.57,-9.96 9.5,-14.06 0.39,-1.74 0.38,-3.37 -0.04,-4.88 -0.42,-1.51 -1.26,-2.91 -2.51,-4.2 -2.93,-3.02 -8.09,-5.41 -15.51,-7.09 -0.41,-0.09 -0.67,-0.5 -0.58,-0.92 0.09,-0.41 0.5,-0.67 0.92,-0.58 7.72,1.75 13.14,4.28 16.27,7.51 1.43,1.48 2.39,3.1 2.89,4.85 0.49,1.76 0.51,3.64 0.06,5.63 -0.99,4.4 -4.31,9.37 -9.92,14.81l-0.21 0.22c-1.98,2.13 -3.09,4.74 -3.34,7.17 -0.24,2.36 0.33,4.54 1.73,5.9l0.01 0.01c1.37,0.7 2.64,1.48 3.81,2.3 4.06,2.84 6.92,6.11 8.42,7.85l0.03 0.04c4.53,5.99 6.06,14.17 5.59,21.88 -0.21,3.49 -0.84,6.9 -1.78,9.97 0.12,1.85 0.36,3.67 0.72,5.48 0.37,1.85 0.87,3.7 1.5,5.52 0.14,0.4 -0.07,0.84 -0.47,0.98 -0.4,0.14 -0.84,-0.08 -0.97,-0.48 -0.65,-1.89 -1.17,-3.8 -1.56,-5.72 -0.16,-0.82 -0.3,-1.64 -0.42,-2.45 -1.41,3.35 -3.22,6.08 -5.28,7.75 -0.33,0.27 -0.81,0.22 -1.08,-0.11 -0.27,-0.33 -0.22,-0.81 0.11,-1.08 2.45,-1.99 4.52,-5.64 5.92,-10.09 0.01,-0.06 0.03,-0.13 0.06,-0.19 0.91,-2.96 1.51,-6.27 1.72,-9.67 0.45,-7.39 -0.99,-15.19 -5.28,-20.86 -1.47,-1.7 -4.24,-4.86 -8.11,-7.57 -1.14,-0.8 -2.37,-1.55 -3.7,-2.22 -0.02,-0.01 -0.04,-0.02 -0.06,-0.03 -1.87,-0.94 -3.92,-1.71 -6.15,-2.17 -2.21,1.37 -3.84,2.41 -5.16,3.99l-0 0c-2.34,2.79 -5.33,4.4 -9.06,4.77 -3.64,0.36 -7.97,-0.47 -13.05,-2.57 -0.39,-0.16 -0.58,-0.61 -0.42,-1 0.16,-0.39 0.61,-0.58 1,-0.42 4.85,2 8.93,2.8 12.32,2.46 3.3,-0.33 5.95,-1.76 8.03,-4.23 1.14,-1.37 2.43,-2.34 4.04,-3.38 -0.84,-0.09 -1.69,-0.13 -2.57,-0.12 -6.69,0.4 -10.18,-0.05 -12.06,-1.95 -1.91,-1.93 -1.99,-5.09 -1.92,-10.14 0.04,-3.03 0.02,-5.23 -0.4,-6.9 -0.39,-1.56 -1.14,-2.69 -2.58,-3.7 -0.35,-0.24 -0.43,-0.72 -0.19,-1.07 0.24,-0.35 0.72,-0.43 1.07,-0.19 1.78,1.25 2.72,2.64 3.2,4.59 0.45,1.84 0.48,4.13 0.44,7.29 -0.06,4.65 -0.01,7.54 1.48,9.04 1.51,1.53 4.67,1.88 10.88,1.5l0.04 0c3.41,-0.03 6.51,0.64 9.29,1.72 -0.62,-1.44 -0.83,-3.13 -0.65,-4.89 0.18,-1.75 0.75,-3.57 1.71,-5.28l0 0z"/>
   <path class="fil1" d="M140.98 72.1c12.4,0 21.22,-6.53 21.22,-17.54 0,-12.08 -9.71,-15.1 -18.36,-17.71 -8.9,-2.69 -10.28,-4.49 -10.28,-7.1 0,-2.29 2.04,-4.33 6.12,-4.33 5.22,0 7.92,2.53 9.87,6.61l11.01 -6.45c-4.16,-8.41 -11.5,-12.89 -20.89,-12.89 -9.87,0 -19.18,6.36 -19.18,17.38 0,10.94 8.32,15.01 16.81,17.38 8.57,2.37 11.83,3.75 11.83,7.26 0,2.2 -1.55,4.65 -7.75,4.65 -6.45,0 -9.96,-3.18 -12,-7.92l-11.26 6.53c3.18,8.4 10.85,14.12 22.85,14.12zm127.54 -1.14l0 -11.1c-5.38,0.33 -8.4,0 -8.4,-3.51l0 -14.44 8.4 0 0 -11.75 -8.4 0 0 -11.42 -12.24 3.67 0 7.75 -6.53 0 0 11.75 6.53 0 0 14.44c0,11.42 4.65,16.24 20.64,14.61zm-79.39 1.14c11.99,0 21.62,-9.38 21.62,-21.54 0,-12.16 -9.63,-21.54 -21.62,-21.54 -11.99,0 -21.62,9.38 -21.62,21.54 0,12.16 9.63,21.54 21.62,21.54zm0 -11.91c-5.3,0 -9.38,-3.84 -9.38,-9.63 0,-5.79 4.08,-9.63 9.38,-9.63 5.3,0 9.38,3.83 9.38,9.63 0,5.79 -4.08,9.63 -9.38,9.63zm49.77 -35.74l0 -11.75c-13.55,-0.82 -19.83,6.04 -19.83,17.46l-5.47 0 0 11.75 5.47 0 0 29.05 12.24 0 0 -29.05 7.59 0 0 -11.75 -7.59 0c0,-4.73 3.02,-6.12 7.59,-5.71z"/>
   <path class="fil2" d="M254.74 95.63l0 -1.16c-2.63,0.23 -3.84,0.18 -3.84,-2.09l0 -8.37 3.84 0 0 -1.26 -3.84 0 0 -3.61 -1.31 0.39 0 3.22 -2.83 0 0 1.26 2.83 0 0 8.37c0,2.94 1.78,3.76 5.15,3.25zm-63.81 -18.03l-1.36 0 0 18.03 1.36 0 0 -18.03zm-50.57 0l-1.44 0 -7.01 18.03 1.44 0 1.75 -4.59 9.04 0 1.75 4.59 1.44 0 -6.98 -18.03zm-4.74 12.16l4.02 -10.49 4.02 10.49 -8.04 0zm25.27 -7.01l0 2.99c-1.06,-1.98 -3.04,-3.27 -5.54,-3.27 -3.68,0 -6.67,2.91 -6.67,6.72 0,3.81 2.99,6.72 6.67,6.72 2.5,0 4.48,-1.29 5.54,-3.27l0 2.37c0,2.94 -1.91,4.82 -5.13,4.82 -2.83,0 -4.28,-1.13 -4.95,-2.5l-1.13 0.64c0.93,1.88 3.06,3.09 6.08,3.09 3.56,0 6.41,-2.19 6.41,-6.05l0 -12.26 -1.29 0zm-5.46 11.93c-3.07,0 -5.46,-2.42 -5.46,-5.49 0,-3.07 2.4,-5.49 5.46,-5.49 3.06,0 5.46,2.42 5.46,5.49 0,3.06 -2.4,5.49 -5.46,5.49zm12.01 -9.4l0 -2.52 -1.29 0 0 12.88 1.29 0 0 -7.16c0,-3.3 2.09,-4.66 4.3,-4.66l0 -1.24c-1.75,0 -3.43,0.67 -4.3,2.7zm12.03 10.64c3.74,0 6.75,-2.91 6.75,-6.72 0,-3.81 -3.01,-6.72 -6.75,-6.72 -3.76,0 -6.78,2.91 -6.78,6.72 0,3.81 3.01,6.72 6.78,6.72zm0 -1.24c-3.07,0 -5.46,-2.42 -5.46,-5.49 0,-3.07 2.39,-5.49 5.46,-5.49 3.07,0 5.44,2.42 5.44,5.49 0,3.06 -2.37,5.49 -5.44,5.49zm21.59 -12.21c-1.98,0 -3.63,0.82 -4.61,2.73l0 -2.45 -1.29 0 0 12.88 1.29 0 0 -6.8c0,-3.48 1.98,-5.13 4.51,-5.13 2.42,0 3.79,1.55 3.79,3.91l0 8.01 1.31 0 0 -8.01c0,-3.12 -1.93,-5.15 -5,-5.15zm17.95 0.28l-4.87 11.54 -4.84 -11.54 -1.39 0 5.46 12.88 1.57 0 5.44 -12.88 -1.36 0zm8.99 -0.28c-3.94,0 -6.67,2.94 -6.67,6.72 0,3.89 2.81,6.72 6.78,6.72 2.55,0 4.56,-1.16 5.61,-2.91l-1.13 -0.67c-0.75,1.37 -2.35,2.35 -4.46,2.35 -2.94,0 -5.15,-1.91 -5.46,-4.82l11.67 0c0,-0.21 0.03,-0.41 0.03,-0.62 0,-3.53 -2.45,-6.78 -6.36,-6.78zm0 1.24c2.52,0 4.74,1.75 5.02,4.9l-10.36 0c0.26,-2.86 2.4,-4.9 5.33,-4.9zm9.74 2.42c0,-1.55 1.42,-2.42 3.09,-2.42 1.42,0 2.76,0.62 3.3,1.96l1.08 -0.62c-0.7,-1.57 -2.29,-2.58 -4.38,-2.58 -2.63,0 -4.38,1.62 -4.38,3.66 0,4.64 7.81,2.63 7.81,6.13 0,1.62 -1.52,2.42 -3.32,2.42 -1.93,0 -3.32,-0.88 -3.79,-2.27l-1.11 0.64c0.62,1.65 2.32,2.86 4.9,2.86 2.76,0 4.61,-1.55 4.61,-3.66 0,-4.72 -7.81,-2.68 -7.81,-6.13z"/>
  </g>
 </g>
</svg>
