<?xml version="1.0" encoding="UTF-8"?>
<!DOCTYPE svg PUBLIC "-//W3C//DTD SVG 1.1//EN" "http://www.w3.org/Graphics/SVG/1.1/DTD/svg11.dtd">
<!-- Creator: CorelDRAW 2020 (64 Bit) -->
<svg xmlns="http://www.w3.org/2000/svg" xml:space="preserve" width="273.05mm" height="273.05mm" version="1.1" style="shape-rendering:geometricPrecision; text-rendering:geometricPrecision; image-rendering:optimizeQuality; fill-rule:evenodd; clip-rule:evenodd"
viewBox="0 0 2507.36 2507.36"
 xmlns:xlink="http://www.w3.org/1999/xlink"
 xmlns:xodm="http://www.corel.com/coreldraw/odm/2003">
 <defs>
  <style type="text/css">
   <![CDATA[
    .fil2 {fill:none}
    .fil1 {fill:#FEFEFE}
    .fil0 {fill:#00C853}
   ]]>
  </style>
   <clipPath id="id0">
    <path d="M1253.68 0c692.39,0 1253.68,561.29 1253.68,1253.68 0,692.39 -561.29,1253.68 -1253.68,1253.68 -692.39,0 -1253.68,-561.29 -1253.68,-1253.68 0,-692.39 561.29,-1253.68 1253.68,-1253.68z"/>
   </clipPath>
 </defs>
 <g id="Camada_x0020_1">
  <metadata id="CorelCorpID_0Corel-Layer"/>
  <path class="fil0" d="M1253.68 0c692.39,0 1253.68,561.29 1253.68,1253.68 0,692.39 -561.29,1253.68 -1253.68,1253.68 -692.39,0 -1253.68,-561.29 -1253.68,-1253.68 0,-692.39 561.29,-1253.68 1253.68,-1253.68z"/>
  <g style="clip-path:url(#id0)">
   <g id="_1898485949536">
    <path id="1" class="fil1" d="M462.73 1682.11l603.1 0c-14.44,30.1 -0.73,21.92 -35.37,56.91 -15.32,15.47 -37.48,28.78 -66.79,28.78l-398.77 0c-35.67,0 -72.88,-27.29 -86.84,-51.57 -6.97,-12.11 -9.77,-22.54 -15.32,-34.11zm829.55 -1272.11l14.59 0c26.15,1.94 50.56,14.33 62.16,36.25 16.3,-3.8 62.75,-39.49 117.79,7.44 33.56,28.61 27.22,72.62 27.22,114.5l204.33 0c0,-23.55 -4.34,-46.14 23.07,-46.14 30.59,0 26.37,17.42 26.37,46.14l59.32 0c0,-18.25 -3.57,-46.14 26.37,-46.14 28.94,0 26.36,24.09 26.36,46.14 40.21,0 131.72,-5.75 158.4,12.97 31.23,21.92 35.07,73.07 10.35,103.05 -6.37,7.72 -24.09,19.1 -36.93,19.1l-131.83 0c0,55.43 -37.15,40.04 -45.98,29.5 -7.44,-8.89 -6.75,-18.28 -6.75,-29.5l-59.32 0 0 398.77c44.41,3.7 97.95,70.34 66.02,138.52 -4.25,9.08 -15.37,24.33 -23.18,29.55 17.92,26.75 31.41,61.07 48.8,89.62l97.36 179.48c16.09,31.75 32.26,59.84 48.29,90.13 29.36,0 92.28,-9.09 92.28,19.77 0,100.43 -74.54,171.37 -161.49,171.37l-388.89 0c-18.3,0 -19.54,-3.3 -36.25,-3.3l0 230.69 566.85 0c26.27,0 26.27,49.43 0,49.43l-1647.82 0c-26.27,0 -26.27,-49.43 0,-49.43l566.85 0 0 -230.69c-16.71,0 -17.96,3.3 -36.25,3.3l-388.89 0c-84.45,0 -161.49,-74.08 -161.49,-158.19 0,-43.53 24.88,-32.96 92.28,-32.96l145.64 -269.61c9.2,-15.11 14.88,-29.07 24.34,-44.87 4.89,-8.17 7.37,-14.18 11.22,-21.74l13.24 -19.71c-8.02,-11.97 -16.05,-17.63 -23.14,-32.88 -32.04,-68.9 22.04,-134.83 65.99,-138.49l0 -398.77 -59.32 0c0,16.99 -2.63,39.55 -26.37,39.55 -24.91,0 -26.36,-20.26 -26.36,-39.55l-131.83 0c-52.05,0 -75.9,-90.29 -24.61,-123.48 26.08,-16.88 118.75,-11.64 156.43,-11.64 0,-11.84 -2.14,-46.14 19.77,-46.14 35.93,0 32.96,18.51 32.96,46.14l59.32 0c0,-23.55 -4.34,-46.14 23.07,-46.14 30.59,0 26.37,17.42 26.37,46.14l168.08 0 0 -26.36c0,-53.8 70.98,-111.07 138.42,-65.91 25.53,-48.26 74.91,-58.03 128.53,-29.66 11.89,-7.96 15.22,-16.56 28.48,-24.25 12.11,-7.02 25.9,-10.98 39.78,-12zm432.68 886.53c65.8,0 33.5,-4.94 85.05,79.73 29.88,49.07 80.44,149.73 113.74,209.23 5.19,9.28 19.93,36.11 22.01,43.9 -40.62,0 -72.5,-8.12 -72.5,29.66 0,29.38 59.85,23.07 72.5,23.07 32.96,-0.01 65.91,0 98.87,0 -14.46,30.14 -10.71,33.11 -35.35,56.93 -14.94,14.44 -38.6,28.76 -66.81,28.76l-398.77 0c-36.96,0 -71.25,-26.29 -86.87,-51.55 -3.62,-5.86 -6.05,-10.21 -8.12,-14.94 -3.25,-7.43 -3.93,-12.44 -7.17,-19.19l326.27 0 0 -52.73 -227.4 0 169.03 -315.43c4.64,-8.72 5.28,-17.43 15.53,-17.43zm-675.61 164.78l408.66 0 0 168.08c-62.74,0 -69.21,-3.71 -69.21,39.55 0,75.93 69.21,113.79 69.21,128.53l0 250.47 -408.66 0 0 -250.47c0,-13.12 29,-27.47 44.83,-54.04 14.33,-24.04 49.67,-114.04 -1.98,-114.04l-42.84 0 0 -168.08zm-303.2 -164.78c49.81,0 40.97,-3.45 50.69,15.22l113.04 209.94c5.03,9 7.1,11.02 12.09,20.87l23.07 42.84c5.89,11.63 19.68,34.35 21.92,43.99l-405.36 0c34.22,-64.67 100.73,-195.67 134.48,-251.1l34.6 -64.27c4.05,-8.62 5.63,-17.48 15.47,-17.48zm303.2 3.29l408.66 0 0 108.76 -408.66 0 0 -108.76zm645.94 -95.57c0,-82.88 95.57,-61.23 95.57,-13.18 0,81.51 -95.57,62.25 -95.57,13.18zm-978.8 0c0,-81.46 95.57,-62.66 95.57,-13.18 0,82.42 -95.57,61.42 -95.57,13.18zm461.39 -454.8c-23.15,0 -42.84,-9.87 -42.84,-32.96l0 -201.03c0,-40.12 75.8,-52.05 75.8,9.89l0 181.26c0,21.68 -11.55,42.84 -32.96,42.84zm174.67 -46.14l207.62 0c56.14,0 46.14,55.8 46.14,108.75 0,56.13 -7.13,91.02 -23.46,131.43 -46.39,114.77 -170.98,135.85 -170.98,303.59l-319.68 0c0,-145.12 -68.59,-122.56 -85.03,-274.2 -2.17,-19.99 -2.06,-31.61 -21.54,-34.49 -30.73,-4.53 -28.56,26.43 -28.56,41.73 0,50.86 20.77,101.13 40.59,134.08 22.51,37.42 45.1,74.43 45.1,132.86 -41.79,0 -46.29,-0.61 -46.14,59.32l0 263.65 -82.43 -148.26c-12.58,-24.19 -75.48,-136.33 -79.05,-151.64 14.07,-21.02 29.66,-36.21 29.66,-72.5 0,-25.5 -10.82,-48.55 -22.49,-63.19 -10.91,-13.68 -31.61,-30.58 -53.3,-32.38l0 -398.77 168.08 0 0 115.35c0,14.1 10.16,26.37 23.07,26.37 35.78,0 26.37,-46.07 26.37,-82.39 45.28,23.96 73.48,-1.73 92.28,-3.3 6.6,24.72 43.26,42.84 79.1,42.84 23.53,0 34.2,-12.41 49.43,-16.48 26.76,17.92 20.81,32.96 82.39,32.96 19.55,0 31.06,-8.59 42.84,-16.48 16.31,22.26 65.32,29.66 95.57,29.66 -13.57,9.43 -70.75,16.15 -115.87,71.98 -59.1,73.14 -72.08,179.31 -21.15,167.01 36.92,-8.91 1.32,-61.71 57.4,-130.76 74.88,-92.2 155.42,-27.89 155.42,-95.05 0,-97.52 -25.73,-55.45 -104.74,-66.63 -33.99,-4.81 -65.55,-35.82 -66.63,-75.08zm296.61 0l69.21 0 0 398.77c-36.75,3.06 -75.8,46.44 -75.8,95.57 0,36.3 15.59,51.48 29.66,72.5 -2.61,11.19 -11.76,27.96 -17.87,38.16 -20.62,34.43 -127.66,243.38 -143.62,261.75l0 -260.36c0.08,-62.09 -2.38,-62.62 -46.14,-62.62 0,-104.07 43.69,-122.21 106.2,-193.71 96.09,-109.92 84.95,-186.18 84.95,-317.12 0,-15.65 -4.64,-17.71 -6.59,-32.96zm-642.65 -26.37l0 -115.35c0,-72.01 75.8,-55.37 75.8,-16.48l0 141.71c0,40.12 -75.8,52.05 -75.8,-9.89zm761.29 -56.03l59.32 0 0 32.96 -59.32 0 0 -32.96zm-253.76 0l204.33 0 0 32.96 -204.33 0 0 -32.96zm-125.23 -105.46c0,-40.12 75.8,-52.05 75.8,9.89l0 128.53 -75.8 0 0 -138.42zm-88.98 181.26c0,32.32 10.92,45.37 16.48,69.21 -8.62,0.72 -26.99,10.62 -45.42,-10.6 -6.28,-7.22 -10.6,-19.43 -10.6,-32.24l0 -217.51c0,-60.53 75.8,-56.61 75.8,-9.89l0 151.6c0,13.09 -36.25,18.25 -36.25,49.44zm-510.82 -75.8l168.08 0 0 32.96 -168.08 0 0 -32.96zm-108.76 0l59.32 0 0 32.96 -59.32 0 0 -32.96zm1314.96 32.96l-115.35 0 0 -32.96 121.94 0c16.2,0 22.76,32.96 -6.59,32.96zm-1502.81 -13.18c0,-7.56 -0.52,-19.77 13.18,-19.77l121.94 0 0 32.96 -115.35 0c-10.12,0 -19.77,-3.05 -19.77,-13.18z"/>
   </g>
  </g>
  <path class="fil2" d="M1253.68 0c692.39,0 1253.68,561.29 1253.68,1253.68 0,692.39 -561.29,1253.68 -1253.68,1253.68 -692.39,0 -1253.68,-561.29 -1253.68,-1253.68 0,-692.39 561.29,-1253.68 1253.68,-1253.68z"/>
 </g>
</svg>
