<?xml version="1.0" encoding="UTF-8"?>
<!DOCTYPE svg PUBLIC "-//W3C//DTD SVG 1.1//EN" "http://www.w3.org/Graphics/SVG/1.1/DTD/svg11.dtd">
<!-- Creator: CorelDRAW 2020 (64 Bit) -->
<svg xmlns="http://www.w3.org/2000/svg" xml:space="preserve" width="273.05mm" height="273.05mm" version="1.1" style="shape-rendering:geometricPrecision; text-rendering:geometricPrecision; image-rendering:optimizeQuality; fill-rule:evenodd; clip-rule:evenodd"
viewBox="0 0 4149.79 4149.79"
 xmlns:xlink="http://www.w3.org/1999/xlink"
 xmlns:xodm="http://www.corel.com/coreldraw/odm/2003">
 <defs>
  <style type="text/css">
   <![CDATA[
    .fil1 {fill:#FEFEFE}
    .fil0 {fill:#00C853}
   ]]>
  </style>
 </defs>
 <g id="Camada_x0020_1">
  <metadata id="CorelCorpID_0Corel-Layer"/>
  <circle class="fil0" cx="2074.9" cy="2074.9" r="2074.9"/>
  <g id="_1898478612000">
   <path class="fil1" d="M630.16 2234.65c-7.93,-133.49 61.57,-262.33 126.14,-328.34 9.93,-10.15 18.35,-18.28 27.73,-27.83 63.23,-64.29 189.38,-111.14 285.14,-115.04 332.11,-13.49 617.77,350.63 398.66,706.38 -76.58,124.33 -217.28,202.19 -364.63,207.17 -115.64,3.9 -212.12,-35.29 -298.36,-100.83 -53.46,-40.63 -98.24,-98.03 -127.78,-159.11 -26.17,-54.11 -42.96,-116 -46.9,-182.4zm704.37 -504.44c-19.13,-5.11 -34.86,-14.68 -53.8,-21.71 -54.64,-20.29 -109.21,-34.22 -168.35,-32.85 -14.96,0.34 -24.85,2.84 -32.65,-7.24 -7.24,-8.76 8.28,-65.66 14.21,-78.25 27.79,-3.51 143.62,27.11 177.88,34.82 12.83,2.89 77.8,15.17 82.01,22.38 5.33,9.13 -12.08,74.85 -19.3,82.84zm10.48 -286.4c9.12,64.25 -100.84,108.52 -146.64,38.73 -19.58,-29.84 -18.77,-71.98 3.84,-95.87 24.9,-26.31 65.35,-39.94 90.59,-24.91 -11.75,20.04 -58.25,33.85 -31.17,79.03 21.05,35.13 71.54,12.87 83.37,3.02zm1470.72 -783.18c137.62,-16.12 264.63,51.14 337.19,116.47 38.8,34.93 68.77,70.29 99.01,129.18 62.08,120.91 66.87,243.07 20.99,370.6 -18.91,52.55 -56.06,112.12 -86.19,141.93 -19.07,18.86 -34.99,38.18 -58.55,55.62 -74.5,55.09 -141.66,88.54 -245.33,95.82 -71.38,5.01 -138.37,-6.97 -199.52,-30.54 -75.59,-29.13 -151.05,-83.06 -197.84,-144.4 -115.08,-150.9 -129.88,-363.55 -27.26,-519.98 31.66,-48.26 63.34,-85.88 108.13,-120.07 22.82,-17.42 41.33,-29.65 69.24,-44.88 59.87,-32.65 105.09,-40.96 180.14,-49.75zm-1270.43 545.3c3.27,-28.62 48.98,-49.17 74.33,-64.86 25.27,-15.64 58.4,-44.53 97.04,-45.37 -10.25,20.44 -48.27,28.82 -27.38,71.59 20.21,41.36 45.95,15.58 78.74,12.87 -10.62,29.24 -45.53,46.34 -76.33,63.7 -22.61,12.74 -62.9,48.46 -94.48,43.11 6.13,-7.17 18.94,-15.41 25.97,-28.34 8.78,-16.16 6.63,-31.05 -1.57,-45.15 -17.82,-30.64 -44.32,-18.09 -76.33,-7.56zm438.49 -277.32c11.48,-78.6 104.89,-100.82 148.46,-37.71 47.06,68.16 -37.11,152.23 -91.03,121.97 -0.4,-0.23 -1.49,-0.42 -1.77,-1.34 -0.28,-0.92 -1.2,-0.88 -1.72,-1.41 6.88,-8.43 57.52,-31.68 29.57,-78.69 -23.41,-39.37 -53.71,-8.12 -83.5,-2.83zm230.14 180.22c-0.67,-30.16 51.75,-209.4 58.75,-264.08l84.42 20.41c-5.08,36.05 -31.84,80.2 -41.74,117.39 -12.88,48.39 -8.97,92.37 -15.41,140.94 -21.57,5.96 -65.24,-7.13 -86.02,-14.65zm1181 41.43l0 -68.94c-5.88,-16.1 -12.53,-83.85 -19.44,-110.16 -43.38,-165.15 -152.72,-274.88 -294.82,-350.21 -90.15,-47.79 -170.8,-43.39 -201.35,-54.98l-74.18 0 -97.2 19.25c-52.65,13.31 -115.91,39.83 -159.51,68.79 -41.42,27.51 -87.31,70.91 -119.92,108.37 -20.02,23 -16.4,23.97 -81.83,6.54 -89.48,-23.83 -117.59,-27.93 -160.39,40.72 -14.37,-4.47 -29.97,-17.51 -46.22,-25.33 -61.21,-29.44 -104.59,-29.38 -166.01,4.76 -25.04,13.92 -53.19,44.77 -66.55,75.34 -21.33,48.8 -12.52,70.75 -9.54,124.02 -22.06,11.44 -42.03,23.47 -60.99,36.78 -33.92,23.81 -31.81,6.92 -64.91,-8.6 -56.19,-26.34 -110.8,-8.24 -153.94,17.99 -62.32,37.89 -139.61,74.36 -159.47,136.83 -11.36,35.74 -5.16,59.61 -7.48,94.7 -15.69,12.43 -35.13,22.07 -50.53,32.25 -25.69,16.98 -27.66,3.9 -52.6,-11.9 -70.36,-44.58 -186.34,-18.63 -232,66.62 -30.44,56.84 -20.16,75.57 -14.24,139.89 -56.05,6.57 -77.85,14.08 -94.51,62.89 -10.81,31.65 -18.74,103.6 -30.42,126.26 -9.76,7.02 -70.06,22.15 -88.42,29.25 -50.41,19.49 -132.5,64.35 -166.39,98.97l-45.69 46.82c-66.55,85.16 -131.07,192.22 -135.3,340.45 -5.02,176.08 57.52,284.87 142.5,391.9l28.67 29.83c162.45,157.81 430.07,187.95 627.91,86.73 296.94,-151.91 393.75,-544.31 172.41,-831.42 -4.52,-5.86 -8.08,-10.05 -12.18,-15.6l-44.06 -45.52c-13.22,-11.85 -19.68,-14.98 -35.18,-26.14 -2.58,-62.26 50.6,-140.17 15.02,-191 -9.55,-13.64 -27.08,-29 -44.26,-36.14 7.85,-24.01 23.88,-23.01 38.48,-71.89 13.14,-44 2.69,-60.34 2.41,-103.16 18.94,-6.38 39.65,-27.31 59.32,-35.76 31.49,-13.52 71.44,81.2 213.09,-5.57 121.75,-74.59 158.07,-81.71 156.32,-226.47 11.99,-5.24 26.62,-17.49 40.9,-26.6 53.04,-33.82 41.01,-28.9 78.93,-5.64 53.71,32.93 76.24,21.9 139.66,16.39 0.86,106.8 81.39,94.04 172.47,118.74 27.04,7.33 27.64,47.41 46.28,98.47 24.98,68.4 67.24,126.41 116.29,176.77 12.67,13.01 22.87,25.27 37.52,36.6 13.67,10.57 25.6,22.32 41.46,32.56 62.82,40.57 119.03,68.6 206.23,86.79 165.09,34.43 329.97,-15.81 452.42,-114.65 48.01,-38.75 54.24,-49.27 88.43,-93.61 22.38,-29.01 23.47,-25.9 45.27,-65.77 25.8,-47.18 45.96,-107.28 56.65,-162.2 3.97,-20.38 4.03,-48.6 10.88,-64.99z"/>
   <path class="fil1" d="M623.05 3154.82c-36.18,2.2 -70.94,-1.62 -80.17,30.91 -11.37,40.04 13.12,57.42 48.39,59.32 71.32,3.84 149.84,-0.16 222,-0.14l888.32 -0.03c47.32,-0.09 56.1,1.45 72.41,40.11 30.91,73.3 102.66,132.09 195.91,135.64 68.93,2.62 127.51,-27.78 161.94,-61.68 65.02,-64.01 40.21,-111.84 106.52,-113.91 144.6,-4.5 298.63,-0.66 444.07,0.01 148,0.67 296.14,-0.03 444.16,0.05 70.94,0.04 148.68,4.4 218.73,-0.05 33.84,-2.15 58.4,-23.58 45.04,-61.94 -10.27,-29.5 -46.23,-25.76 -79.62,-28.4 -11.66,-13.8 -64.34,-114.05 -79.18,-139.71 -26.3,-45.47 -7,-32.62 -64.48,-46.85 -92.02,-22.79 -159.87,-62.99 -247.54,-79.38 -62.37,-11.66 -127.23,-27.22 -192.45,-28.99 2.27,56.67 -22.13,101.12 -43.45,144.07 -19.14,38.57 -52.36,72.67 -92.2,92.71 -108.97,54.82 -195.26,3.04 -288.42,-35.38 -84.08,-34.68 -250.22,-110.15 -332.67,-133.1 -20.73,-5.77 -42.16,-21.38 -61.46,-31.16 -264.52,-134.19 -837.53,-31 -1130.27,43.05 -33.97,8.59 -41.64,10.4 -55.72,37.17 -11.22,21.35 -22.33,39.92 -32.94,59.64l-66.94 118.05z"/>
   <path class="fil1" d="M2074.64 2515.33c16.36,16.52 211.3,90.77 250.96,107.11 46.45,19.14 223.03,98.8 258.14,103.11 9.56,-17.26 22.25,-93.75 29.2,-119.35 16.23,-59.81 57.69,-156.48 87.82,-208.4 9.18,-15.81 19.38,-30.55 28.1,-45.84 8.38,-14.69 22.91,-33.56 29.01,-49.46l-510.08 -211.83c-16.89,129.87 -76.83,266.41 -144.38,376.24 -9.95,16.18 -21.38,31.88 -28.77,48.41z"/>
   <path class="fil1" d="M3394.93 2760.62l0 -33.48c-7.44,-15.35 -4.97,-21.85 -17.47,-40.03 -72.71,-105.79 -296.38,-165.05 -413.9,-206.25 -37.49,-13.14 -143.24,-46.3 -182.43,-47.2 -22.19,21.72 -90.57,173.13 -89.39,217.39 20.69,18.71 137.74,80.33 170.27,98.05 92.9,50.61 286.61,145.96 394.12,146.56 66.5,0.37 99.58,-32.53 121.74,-82.86 6.98,-15.86 10.03,-37.81 17.06,-52.17z"/>
   <path class="fil1" d="M1941.52 2569.32c-25.7,9.48 -98.43,145.05 -30.14,220.43 40.87,45.11 141.62,78.08 202.35,103.09 71.8,29.57 148.14,56.36 216.57,88.82 107.63,51.05 238.46,103.84 297.85,-54.95 22.02,-58.87 19.4,-78.41 -31.3,-100.8 -130.89,-57.8 -296.38,-120.56 -433.29,-177.33 -32.71,-13.56 -198.78,-87.84 -222.05,-79.26z"/>
   <path class="fil1" d="M2310.25 1786.55c-97.14,24.12 -132.16,157.55 -111.19,181.87 18.63,21.62 70.74,36.42 104.51,49.87 37.12,14.79 72.92,29.53 110.22,43.99 118.79,46.05 331.71,152.72 431.03,182.82 60.53,18.34 65.09,-4.16 84.06,-50.98 17.4,-42.93 31.59,-74.29 15.12,-125.33 -24.42,-75.66 -107.86,-91.59 -184.38,-124.26 -71.35,-30.46 -143.2,-60 -215.72,-89.61 -53.64,-21.9 -170.15,-84.14 -233.64,-68.38z"/>
  </g>
 </g>
</svg>
