<?xml version="1.0" encoding="UTF-8"?>
<!DOCTYPE svg PUBLIC "-//W3C//DTD SVG 1.1//EN" "http://www.w3.org/Graphics/SVG/1.1/DTD/svg11.dtd">
<!-- Creator: CorelDRAW 2020 (64 Bit) -->
<svg xmlns="http://www.w3.org/2000/svg" xml:space="preserve" width="273.05mm" height="273.05mm" version="1.1" style="shape-rendering:geometricPrecision; text-rendering:geometricPrecision; image-rendering:optimizeQuality; fill-rule:evenodd; clip-rule:evenodd"
viewBox="0 0 3125.97 3125.97"
 xmlns:xlink="http://www.w3.org/1999/xlink"
 xmlns:xodm="http://www.corel.com/coreldraw/odm/2003">
 <defs>
  <style type="text/css">
   <![CDATA[
    .fil2 {fill:none}
    .fil1 {fill:#FEFEFE}
    .fil0 {fill:#00C853}
   ]]>
  </style>
   <clipPath id="id0">
    <path d="M1562.99 0c863.21,0 1562.99,699.77 1562.99,1562.99 0,863.21 -699.77,1562.99 -1562.99,1562.99 -863.21,0 -1562.99,-699.77 -1562.99,-1562.99 0,-863.21 699.77,-1562.99 1562.99,-1562.99z"/>
   </clipPath>
 </defs>
 <g id="Camada_x0020_1">
  <metadata id="CorelCorpID_0Corel-Layer"/>
  <path class="fil0" d="M1562.99 0c863.21,0 1562.99,699.77 1562.99,1562.99 0,863.21 -699.77,1562.99 -1562.99,1562.99 -863.21,0 -1562.99,-699.77 -1562.99,-1562.99 0,-863.21 699.77,-1562.99 1562.99,-1562.99z"/>
  <g style="clip-path:url(#id0)">
   <g id="_1898487275696">
    <path id="1" class="fil1" d="M597.41 2283.98l1926.79 0 3.28 104.45 -1926.79 0 -3.28 -104.45zm912.04 -1066.26l104.45 0 -0.05 994.31 -104.13 0 -0.28 -994.31zm1010.48 577.05c0.76,118 -124.3,219.96 -248.91,221.08 -127.19,1.14 -250.69,-100.46 -251.11,-221.22l500.01 0.14zm-1415.04 -0.13c-1.65,117.63 -123.75,222.2 -251.03,221.58 -125.73,-0.61 -250.17,-104.48 -248.92,-221.56l499.94 -0.02zm1003.02 -71.8c6.75,-37.44 56.95,-120.55 76.98,-158.19l79.94 -134.66c0.81,-3.92 3.98,-4.34 9.55,-7.96l157.51 300.78 -323.98 0.04zm-1254.13 -299.29c26.32,23.73 155.19,254.93 164.51,299.29l-330.75 -2.46 166.24 -296.82zm240.44 -362.68l940.96 4.99 1.81 80.64 -946.37 -4.23 3.59 -81.4zm51.99 -70.35c2.5,-170.25 140.24,-359.32 272.02,-377.35l24.15 271.2 242.22 -1 19.65 -271.99c136.62,28.69 271.29,202.49 275.79,379.14l-833.84 0zm335.56 -532.17l162.5 0.04 -22.51 356.86 -117.41 -4 -22.58 -352.89zm-70.88 66.56c-99.68,70.54 -241.68,98.51 -313.85,331.95 -9.81,31.74 -12.56,64.81 -20.03,91.62 -19.14,68.72 6.65,25.35 -57.07,55.87 -12.35,272.12 -52.83,213.36 409.63,213.36l9.47 84.86 -749.76 0c-58.02,0 -72.37,-6.13 -70.39,52.71 42.5,30.43 106.27,19.22 171.3,19.39 -25.96,68.18 -69.31,131.26 -103.58,197.86 -81.91,159.19 -57,129.56 -140.78,163.37 -51.75,20.88 -2.08,171.67 61.88,237.33 243.74,250.19 582.96,62.91 574.33,-236.68 -64.45,-30.5 -56.82,12.52 -97.19,-50.45l-164.52 -309.94 516.57 -1.68c10.54,200.32 2.26,615.28 2.14,837.54 -190.56,0 -755.48,-8.41 -905.48,4.79l-7.99 168.33c0.59,70.95 17.77,75.21 87.78,75.21 347.37,0 1746.32,14.53 1980.46,-4.67l-1.27 -237.86c-155.6,-16.06 -703.39,-6.09 -897.22,-5.8l-7.8 -837.45 517.04 0.23c-22.17,60.92 -74.06,141.79 -107.54,203.43 -112.4,206.97 -50.61,114.03 -155.33,156.89 -9.86,326.81 359.82,469.42 569.28,244.5 41.25,-44.29 150.27,-213.34 48.57,-251.53 -67.21,-25.24 -48.46,-15.7 -116.87,-147.17 -33.54,-64.46 -81.46,-137.71 -107.98,-206.25 65.15,-0.16 128.8,11.17 171.17,-19.58 2.1,-58.65 -12.49,-52.52 -70.26,-52.52l-746.62 0 -3.14 -84.86 414.21 -4.26 5.44 -209.01c-80.88,-38.66 -28.67,21.91 -75.31,-137.3 -17.43,-59.5 -39.7,-103.48 -68.96,-146.31 -35.18,-51.49 -57.2,-78.14 -104.11,-110.99 -44.57,-31.22 -99.04,-53.71 -143.16,-84.93 0.03,-150.51 60.16,-138.48 -227.45,-138.48 -112.79,0 -75.7,34.16 -75.62,138.48z"/>
   </g>
  </g>
  <path class="fil2" d="M1562.99 0c863.21,0 1562.99,699.77 1562.99,1562.99 0,863.21 -699.77,1562.99 -1562.99,1562.99 -863.21,0 -1562.99,-699.77 -1562.99,-1562.99 0,-863.21 699.77,-1562.99 1562.99,-1562.99z"/>
 </g>
</svg>
